<?xml version="1.0" standalone="no"?>
<!DOCTYPE svg PUBLIC "-//W3C//DTD SVG 20010904//EN"
 "http://www.w3.org/TR/2001/REC-SVG-20010904/DTD/svg10.dtd">
<svg version="1.0" xmlns="http://www.w3.org/2000/svg"
 width="1024.000000pt" height="1024.000000pt" viewBox="0 0 1024.000000 1024.000000"
 preserveAspectRatio="xMidYMid meet">

<g transform="translate(0.000000,1024.000000) scale(0.100000,-0.100000)"
fill="#000000" stroke="none">
<path d="M5126 6279 c-84 -44 -249 -96 -375 -118 -279 -51 -580 -32 -844 52
l-78 25 -13 -21 c-40 -66 -66 -121 -59 -128 15 -15 258 -80 368 -99 296 -51
609 -29 875 59 94 32 321 138 319 149 -1 10 -117 112 -126 112 -5 -1 -35 -15
-67 -31z"/>
<path d="M6075 6220 c-241 -16 -402 -64 -715 -215 -340 -165 -517 -212 -825
-222 -276 -9 -479 21 -718 104 -71 24 -131 42 -134 39 -3 -3 -23 -34 -44 -68
l-37 -63 25 -13 c53 -29 298 -103 415 -126 376 -76 806 -46 1126 78 48 18 148
64 222 101 372 186 625 244 961 218 79 -6 147 -9 151 -7 11 7 -3 148 -15 156
-6 3 -54 9 -106 12 -53 4 -118 8 -146 10 -27 1 -99 0 -160 -4z"/>
<path d="M6035 5849 c-172 -23 -338 -78 -520 -174 -250 -133 -448 -192 -720
-216 -66 -6 -121 -12 -123 -14 -3 -2 15 -36 39 -76 l44 -71 103 6 c226 13 433
74 699 205 210 103 287 133 410 158 121 24 387 24 541 -1 96 -15 275 -58 334
-81 13 -5 24 7 48 55 17 34 29 68 26 76 -6 16 -200 78 -326 104 -192 38 -395
49 -555 29z"/>
<path d="M1618 4894 c-5 -4 -8 -205 -8 -446 l0 -438 80 0 80 0 0 440 0 440
-29 0 c-15 0 -48 3 -72 6 -24 3 -47 2 -51 -2z"/>
<path d="M2241 4849 c-35 -73 -100 -140 -166 -173 -46 -22 -68 -27 -118 -25
l-62 3 -3 -100 c-1 -55 1 -111 6 -125 5 -13 92 -113 193 -221 l184 -197 103
-1 c56 0 102 4 102 8 0 5 -12 19 -26 33 -23 21 -346 368 -397 426 l-19 22 43
11 c66 18 117 47 172 98 74 70 158 195 181 270 7 22 6 22 -81 22 l-88 0 -24
-51z"/>
<path d="M3026 4878 c-33 -55 -446 -851 -446 -862 0 -4 39 -5 86 -4 l86 3 167
332 c91 183 170 333 174 333 12 0 197 -382 191 -392 -4 -5 -67 -8 -143 -7
l-136 3 -33 -68 c-19 -37 -31 -70 -28 -73 3 -3 94 -5 203 -4 109 1 206 -1 214
-4 9 -3 29 -33 44 -65 l29 -60 87 0 87 0 -221 445 -222 445 -62 0 c-54 0 -64
-3 -77 -22z"/>
<path d="M3764 4891 c-2 -2 -4 -40 -4 -83 l0 -78 292 0 291 0 44 -25 c114 -68
114 -229 -1 -284 -37 -19 -61 -21 -199 -21 -86 0 -157 -2 -157 -5 0 -3 78 -91
173 -195 l172 -190 105 0 104 0 -59 63 c-33 34 -84 88 -114 119 l-54 57 29 6
c145 32 244 152 244 297 0 101 -29 169 -104 244 -91 90 -106 93 -464 96 -162
2 -296 1 -298 -1z"/>
<path d="M5193 4888 c-5 -7 -38 -69 -72 -138 -91 -181 -286 -561 -338 -657
l-44 -83 88 0 89 0 169 340 c93 187 172 340 175 340 11 0 200 -392 194 -402
-4 -6 -54 -9 -143 -7 l-136 4 -32 -65 c-17 -36 -32 -70 -32 -76 -1 -9 52 -10
193 -6 106 2 204 2 218 -1 17 -5 32 -23 53 -67 l29 -60 89 0 c67 0 88 3 84 13
-2 6 -104 206 -225 442 l-221 430 -64 3 c-43 2 -67 -1 -74 -10z"/>
<path d="M5757 4892 c-12 -2 15 -47 95 -160 61 -86 151 -214 199 -284 l89
-126 0 -156 0 -156 80 0 80 0 0 153 1 152 204 280 c112 154 205 283 205 288 0
4 -33 7 -74 7 -41 0 -81 2 -89 5 -10 4 -60 -59 -162 -205 -82 -116 -154 -209
-159 -207 -6 2 -73 93 -149 203 l-138 199 -83 5 c-46 3 -91 4 -99 2z"/>
<path d="M7875 4888 c-4 -9 -5 -154 -3 -324 3 -295 4 -311 25 -357 43 -93 127
-167 211 -186 45 -10 455 -22 480 -13 8 2 12 28 12 78 l0 74 -202 0 c-219 0
-260 6 -309 47 -57 48 -59 63 -59 388 l0 295 -52 0 c-29 0 -63 3 -75 6 -15 4
-25 1 -28 -8z"/>
<path d="M6895 4858 c17 -18 50 -54 74 -80 l45 -48 303 0 303 0 0 80 0 80
-377 0 -377 0 29 -32z"/>
<path d="M3760 4305 l0 -295 80 0 80 0 0 295 0 295 -80 0 -80 0 0 -295z"/>
<path d="M6812 4413 c4 -122 7 -145 30 -195 33 -72 103 -142 176 -176 57 -27
58 -27 330 -30 l273 -3 -3 76 -3 76 -245 2 c-241 2 -246 2 -289 27 -24 14 -58
42 -75 63 -31 38 -31 41 -34 168 l-4 129 -80 0 -81 0 5 -137z"/>
<path d="M7100 4470 l0 -80 258 2 257 3 3 78 3 77 -261 0 -260 0 0 -80z"/>
</g>
</svg>
